<svg xmlns:dc="http://purl.org/dc/elements/1.1/" xmlns:cc="http://creativecommons.org/ns#" xmlns:rdf="http://www.w3.org/1999/02/22-rdf-syntax-ns#" xmlns:svg="http://www.w3.org/2000/svg" xmlns="http://www.w3.org/2000/svg" xmlns:xlink="http://www.w3.org/1999/xlink" id="svg171827" viewBox="0 0 1024 768" height="768px" width="1024px" version="1.1">
  <metadata id="metadata171833">
    <rdf:rdf>
      <cc:work rdf:about="">
        <dc:format>image/svg+xml</dc:format>
        <dc:type rdf:resource="http://purl.org/dc/dcmitype/StillImage"></dc:type>
      </cc:work>
    </rdf:rdf>
  </metadata>
  <defs id="defs171831"></defs>
  <linearGradient spreadMethod="pad" y2="30%" x2="-10%" y1="120%" x1="30%" id="3d_gradient2-logo-c3ae1d4d-6c1b-46c3-8812-7b3f1666993d">
    <stop id="stop171808" stop-opacity="1" stop-color="#ffffff" offset="0%"></stop>
    <stop id="stop171810" stop-opacity="1" stop-color="#000000" offset="100%"></stop>
  </linearGradient>
  <linearGradient gradientTransform="rotate(-30)" spreadMethod="pad" y2="30%" x2="-10%" y1="120%" x1="30%" id="3d_gradient3-logo-c3ae1d4d-6c1b-46c3-8812-7b3f1666993d">
    <stop id="stop171813" stop-opacity="1" stop-color="#ffffff" offset="0%"></stop>
    <stop id="stop171815" stop-opacity="1" stop-color="#cccccc" offset="50%"></stop>
    <stop id="stop171817" stop-opacity="1" stop-color="#000000" offset="100%"></stop>
  </linearGradient>
  <g id="logo-group">
    <image xlink:href="" id="container" x="272" y="144" width="480" height="480" style="display: none;" transform="translate(0 0)"></image>
    <g id="logo-center" transform="translate(0 0)">
      <image xlink:href="" id="icon_container" style="display: none;" x="0" y="0"></image>
      <g id="slogan" style="font-style:normal;font-weight:600;font-size:32px;line-height:1;font-family:'Open Sans';font-variant-ligatures:none;text-align:center;text-anchor:middle" transform="translate(0 0)"></g>
      <g id="title" style="font-style:normal;font-weight:200;font-size:72px;line-height:1;font-family:Phenomena;font-variant-ligatures:none;text-align:center;text-anchor:middle" transform="translate(0 0)">
        <path id="path171836" style="font-style:normal;font-weight:200;font-size:72px;line-height:1;font-family:Phenomena;font-variant-ligatures:none;text-align:center;text-anchor:middle" d="m 437.52837,0 h 0.72 c 0.21601,0 0.36001,-0.144 0.36001,-0.36 v -37.944 c 0,-6.984 3.88799,-11.232 9.64799,-11.232 5.832,0 9.64801,4.248 9.64801,11.232 V -0.36 c 0,0.216 0.144,0.36 0.35999,0.36 h 0.72 c 0.216,0 0.36001,-0.144 0.36001,-0.36 v -37.944 c 0,-7.632 -4.53601,-12.6 -11.08801,-12.6 -6.62399,0 -11.08799,4.968 -11.08799,12.6 V -0.36 c 0,0.216 0.14399,0.36 0.35999,0.36 z" stroke-width="0" stroke-linejoin="miter" stroke-miterlimit="2" fill="#4c565c" stroke="#4c565c" transform="translate(0 325.18) translate(386.2242673 15.89432) scale(1.67) translate(-437.16838 50.904)"></path>
        <path id="path171838" style="font-style:normal;font-weight:200;font-size:72px;line-height:1;font-family:Phenomena;font-variant-ligatures:none;text-align:center;text-anchor:middle" d="m 478.43675,0.504 c 6.624,0 9.936,-4.608 10.08,-10.296 0,-0.144 -0.144,-0.288 -0.36,-0.288 h -0.648 c -0.216,0 -0.36,0.144 -0.36,0.36 -0.144,4.968 -2.88,8.928 -8.712,8.928 -5.76,0 -8.424,-4.176 -8.424,-9.504 v -5.472 h 7.2 c 7.848,0 11.592,-4.32 11.592,-10.152 0,-5.832 -4.176,-10.584 -10.08,-10.584 -6.12,0 -10.08,4.608 -10.08,10.872 v 15.336 c 0,6.048 3.168,10.8 9.792,10.8 z m -8.424,-17.568 v -8.568 c 0,-5.544 3.312,-9.576 8.712,-9.576 5.184,0 8.712,4.176 8.712,9.288 0,5.112 -3.024,8.856 -10.224,8.856 z" stroke-width="0" stroke-linejoin="miter" stroke-miterlimit="2" fill="#626b70" stroke="#626b70" transform="translate(0 325.18) translate(438.7898052 39.94232000000001) scale(1.67) translate(-468.64475 36.504)"></path>
        <path id="path171840" style="font-style:normal;font-weight:200;font-size:72px;line-height:1;font-family:Phenomena;font-variant-ligatures:none;text-align:center;text-anchor:middle" d="m 506.49313,0.504 c 5.18399,0 9.64799,-3.672 9.64799,-9 0,-12.168 -18.57599,-7.992 -18.57599,-19.152 0,-4.608 3.67199,-7.56 8.27999,-7.56 4.96801,0 8.13601,2.808 8.28001,7.848 0,0.216 0.144,0.36 0.36,0.36 h 0.64799 c 0.216,0 0.36,-0.144 0.36,-0.36 -0.144,-5.616 -3.96,-9.144 -9.648,-9.144 -5.47199,0 -9.64799,3.672 -9.64799,8.856 0,12.384 18.576,8.208 18.576,19.152 0,4.752 -3.816,7.704 -8.28,7.704 -5.47201,0 -8.856,-2.808 -9,-8.928 0,-0.216 -0.144,-0.36 -0.36001,-0.36 h -0.648 c -0.216,0 -0.35999,0.144 -0.35999,0.36 0.14399,6.696 4.176,10.224 10.368,10.224 z" stroke-width="0" stroke-linejoin="miter" stroke-miterlimit="2" fill="#788084" stroke="#788084" transform="translate(0 325.18) translate(484.6820398 39.94232000000001) scale(1.67) translate(-496.12513 36.504)"></path>
        <path id="path171842" style="font-style:normal;font-weight:200;font-size:72px;line-height:1;font-family:Phenomena;font-variant-ligatures:none;text-align:center;text-anchor:middle" d="m 533.13987,0.504 c 6.624,0 9.936,-4.608 10.08,-10.296 0,-0.144 -0.144,-0.288 -0.36,-0.288 h -0.648 c -0.216,0 -0.36,0.144 -0.36,0.36 -0.14399,4.968 -2.88,8.928 -8.712,8.928 -5.76,0 -8.424,-4.176 -8.424,-9.504 v -5.472 h 7.20001 c 7.84799,0 11.592,-4.32 11.592,-10.152 0,-5.832 -4.17601,-10.584 -10.08001,-10.584 -6.12,0 -10.07999,4.608 -10.07999,10.872 v 15.336 c 0,6.048 3.168,10.8 9.79199,10.8 z m -8.424,-17.568 v -8.568 c 0,-5.544 3.312,-9.576 8.712,-9.576 5.18401,0 8.712,4.176 8.712,9.288 0,5.112 -3.024,8.856 -10.22399,8.856 z" stroke-width="0" stroke-linejoin="miter" stroke-miterlimit="2" fill="#8e9499" stroke="#8e9499" transform="translate(0 325.18) translate(530.1440323 39.94232000000001) scale(1.67) translate(-523.34788 36.504)"></path>
        <path id="path171844" style="font-style:normal;font-weight:200;font-size:72px;line-height:1;font-family:Phenomena;font-variant-ligatures:none;text-align:center;text-anchor:middle" d="m 552.19625,0 h 0.648 c 0.216,0 0.36,-0.144 0.36,-0.36 v -24.48 c 0,-5.976 3.96,-10.008 9.432,-10.008 h 2.16 c 0.216,0 0.36,-0.144 0.36,-0.36 v -0.576 c 0,-0.216 -0.144,-0.36 -0.36,-0.36 h -2.16 c -6.192,0 -10.8,4.608 -10.8,11.304 v 24.48 c 0,0.216 0.144,0.36 0.36,0.36 z" stroke-width="0" stroke-linejoin="miter" stroke-miterlimit="2" fill="#a4a9ad" stroke="#a4a9ad" transform="translate(0 325.18) translate(577.7196101999999 40.54352000000001) scale(1.67) translate(-551.83625 36.144)"></path>
        <path id="path171846" style="font-style:normal;font-weight:200;font-size:72px;line-height:1;font-family:Phenomena;font-variant-ligatures:none;text-align:center;text-anchor:middle" d="m 578.15,0.504 c 6.192,0 9.648,-4.32 9.648,-11.16 v -14.976 c 0,-6.84 -3.672,-10.872 -9.648,-10.872 -6.264,0 -9.864,3.888 -10.152,9.144 0,0.216 0.144,0.36 0.36,0.36 h 0.648 c 0.216,0 0.36,-0.144 0.36,-0.36 0.288,-4.464 3.384,-7.848 8.784,-7.848 5.112,0 8.28,3.528 8.28,9.576 v 4.896 h -7.632 c -7.488,0 -11.376,3.816 -11.376,10.08 0,7.128 3.888,11.16 10.728,11.16 z m 0,-1.296 c -5.976,0 -9.36,-3.6 -9.36,-9.864 0,-5.472 3.384,-8.784 10.008,-8.784 h 7.632 v 8.784 c 0,6.048 -2.952,9.864 -8.28,9.864 z" stroke-width="0" stroke-linejoin="miter" stroke-miterlimit="2" fill="#babec1" stroke="#babec1" transform="translate(0 325.18) translate(603.7478127 39.94232000000001) scale(1.67) translate(-567.422 36.504)"></path>
      </g>
      <image xlink:href="" id="icon" style="display: none;" x="0" y="0"></image>
    </g>
  </g>
</svg>